<svg width="12" height="6" viewBox="0 0 12 6" fill="none" xmlns="http://www.w3.org/2000/svg">
<path fill-rule="evenodd" clip-rule="evenodd" d="M1.80799 0.195262C1.54764 -0.0650873 1.12553 -0.0650873 0.865184 0.195262C0.604834 0.455612 0.604834 0.877722 0.865184 1.13807L5.52553 5.79842C5.52759 5.80053 5.52967 5.80264 5.53177 5.80474C5.66246 5.93543 5.83392 6.00052 6.00521 6C6.17518 5.9995 6.34498 5.93441 6.47466 5.80474C6.47675 5.80265 6.47881 5.80056 6.48087 5.79845L11.1412 1.13807C11.4016 0.877722 11.4016 0.455612 11.1412 0.195262C10.8809 -0.0650873 10.4588 -0.0650873 10.1984 0.195262L6.00321 4.39048L1.80799 0.195262Z" fill="#2D3440"/>
</svg>
