<svg width="14" height="14" viewBox="0 0 14 14" fill="none" xmlns="http://www.w3.org/2000/svg">
<path fill-rule="evenodd" clip-rule="evenodd" d="M1.66292 6.33008C1.66292 3.75275 3.75226 1.66341 6.32959 1.66341C8.90692 1.66341 10.9963 3.75275 10.9963 6.33008C10.9963 7.58724 10.4992 8.72829 9.69078 9.5674C9.6679 9.58498 9.6459 9.60424 9.62495 9.62519C9.60399 9.64616 9.58471 9.66817 9.56713 9.69106C8.728 10.4996 7.58686 10.9967 6.32959 10.9967C3.75226 10.9967 1.66292 8.90741 1.66292 6.33008ZM10.0749 11.0179C9.04838 11.8391 7.74633 12.3301 6.32959 12.3301C3.01588 12.3301 0.32959 9.64379 0.32959 6.33008C0.32959 3.01637 3.01588 0.330078 6.32959 0.330078C9.6433 0.330078 12.3296 3.01637 12.3296 6.33008C12.3296 7.74669 11.8387 9.04864 11.0176 10.0751L13.4678 12.5252C13.7281 12.7855 13.7281 13.2077 13.4678 13.468C13.2074 13.7284 12.7853 13.7284 12.525 13.468L10.0749 11.0179Z" fill="#2D3440"/>
</svg>
